<svg width="530" height="503" viewBox="0 0 530 503" fill="none" xmlns="http://www.w3.org/2000/svg">
<path fill-rule="evenodd" clip-rule="evenodd" d="M132 226.5C132 154.427 190.427 96 262.5 96C334.573 96 393 154.427 393 226.5C393 298.573 334.573 357 262.5 357C190.427 357 132 298.573 132 226.5Z" fill="url(#paint0_linear_139_55)"/>
<path d="M150.209 226.5C150.209 164.483 200.484 114.209 262.5 114.209C324.517 114.209 374.791 164.483 374.791 226.5C374.791 288.516 324.517 338.79 262.5 338.79C200.484 338.79 150.209 288.516 150.209 226.5Z" stroke="white" stroke-opacity="0.2" stroke-width="3.58242"/>
<path d="M186.627 226.499C186.627 184.596 220.596 150.627 262.499 150.627C304.402 150.627 338.371 184.596 338.371 226.499C338.371 268.402 304.402 302.371 262.499 302.371C220.596 302.371 186.627 268.402 186.627 226.499Z" stroke="white" stroke-opacity="0.498039" stroke-width="3.58242"/>
<path d="M216.977 226.5C216.977 201.359 237.359 180.977 262.5 180.977C287.642 180.977 308.024 201.359 308.024 226.5C308.024 251.642 287.642 272.024 262.5 272.024C237.359 272.024 216.977 251.642 216.977 226.5Z" stroke="white" stroke-opacity="0.74902" stroke-width="3.58242"/>
<path fill-rule="evenodd" clip-rule="evenodd" d="M245.263 226.501C245.263 216.982 252.98 209.264 262.499 209.264C272.019 209.264 279.736 216.982 279.736 226.501C279.736 236.02 272.019 243.738 262.499 243.738C252.98 243.738 245.263 236.02 245.263 226.501Z" fill="white"/>
<path d="M170.482 106.526C171.899 106.526 174.875 106.809 179.41 107.376L178.985 119.28C178.135 137.986 177.426 160.377 176.859 186.453C176.293 212.245 176.009 235.769 176.009 257.026V257.451C179.977 257.451 182.953 257.593 184.937 257.877L196.416 258.302L195.991 266.805L198.967 267.23L204.919 266.805L202.368 335.678C197.266 337.378 192.59 338.229 188.338 338.229L180.261 337.803C177.993 337.803 174.734 338.229 170.482 339.079H171.758C174.592 339.079 176.009 340.354 176.009 342.905C173.458 381.451 171.474 404.267 170.057 411.353C168.357 413.621 164.814 414.896 159.429 415.179C154.043 415.746 144.407 416.03 130.519 416.03H103.31C102.176 414.896 101.609 412.062 101.609 407.527H94.8069C93.3897 406.11 92.6812 401.008 92.6812 392.222C92.6812 381.451 93.6732 363.879 95.6572 339.504L96.0823 333.552H65.8971C49.7417 333.552 37.4126 333.41 28.9097 333.127C20.4069 332.56 15.7303 331.568 14.88 330.151C14.88 329.584 14.7383 328.875 14.4549 328.025C14.1714 327.175 13.7463 325.899 13.1794 324.199C8.64457 323.632 5.52686 319.664 3.82629 312.295C2.12571 304.926 1.27543 290.896 1.27543 270.206C1.27543 264.537 1.84229 260.002 2.976 256.601C4.39314 253.2 7.08571 247.957 11.0537 240.871C12.1874 238.32 13.888 235.202 16.1554 231.518C35.712 193.538 62.6377 149.465 96.9326 99.2983L110.112 98.8731C127.118 98.3062 141.573 98.0228 153.477 98.0228H160.704C164.955 98.0228 168.357 98.3062 170.907 98.8731L170.482 106.526ZM163.68 262.128C163.397 260.994 163.255 256.318 163.255 248.098C163.255 219.472 164.247 173.982 166.231 111.627L166.656 102.699H165.806C164.389 102.416 160.421 102.274 153.902 102.274C140.297 102.274 125.559 102.558 109.687 103.125L99.0583 103.55L98.6332 103.975C71.1406 145.355 45.632 187.445 22.1074 230.242C14.1714 245.547 8.78629 254.759 5.952 257.877C5.66857 260.994 5.52686 265.246 5.52686 270.631C5.52686 282.535 6.09371 293.022 7.22743 302.091C8.36114 311.161 9.35314 316.971 10.2034 319.522C10.4869 319.806 16.4389 320.089 28.0594 320.373C39.68 320.656 48.3246 320.798 53.9931 320.798C83.1863 320.798 98.9166 321.081 101.184 321.648L99.9086 340.779C97.3577 371.39 96.0823 391.513 96.0823 401.15V402.85C96.0823 403.134 96.224 403.275 96.5074 403.275H122.016C135.054 403.275 143.982 403.134 148.8 402.85C153.618 402.567 156.594 401.717 157.728 400.299C158.578 396.331 160.421 374.366 163.255 334.402C163.255 331.851 163.255 329.867 163.255 328.45C163.538 326.75 163.68 325.758 163.68 325.474C164.53 325.191 166.373 325.049 169.207 325.049L180.686 325.474C183.803 325.474 186.779 325.049 189.614 324.199L192.165 262.553L183.237 262.128C178.135 261.561 174.309 261.278 171.758 261.278C168.923 261.278 167.081 261.419 166.231 261.703L163.68 262.128ZM112.663 262.978C111.246 263.262 107.136 263.403 100.334 263.403C96.6492 263.12 90.4137 262.978 81.6274 262.978H64.1966L56.544 262.553C59.3783 257.168 64.9051 247.39 73.1246 233.218C81.6274 218.763 89.9886 204.875 98.208 191.554C106.711 178.233 111.813 171.573 113.513 171.573C113.797 171.573 113.938 171.714 113.938 171.998L112.663 262.978ZM109.262 196.231C94.5234 221.739 83.328 242.713 75.6754 259.152H99.0583C101.609 259.152 103.31 259.294 104.16 259.577C105.01 259.577 105.719 259.577 106.286 259.577C106.853 259.577 107.136 259.577 107.136 259.577C107.419 259.294 107.845 259.152 108.411 259.152L109.262 196.231Z" fill="black"/>
<path d="M495.482 106.526C496.899 106.526 499.875 106.809 504.41 107.376L503.985 119.28C503.135 137.986 502.426 160.377 501.859 186.453C501.293 212.245 501.009 235.769 501.009 257.026V257.451C504.977 257.451 507.953 257.593 509.937 257.877L521.416 258.302L520.991 266.805L523.967 267.23L529.919 266.805L527.368 335.678C522.266 337.378 517.59 338.229 513.338 338.229L505.261 337.803C502.993 337.803 499.734 338.229 495.482 339.079H496.758C499.592 339.079 501.009 340.354 501.009 342.905C498.458 381.451 496.474 404.267 495.057 411.353C493.357 413.621 489.814 414.896 484.429 415.179C479.043 415.746 469.407 416.03 455.519 416.03H428.31C427.176 414.896 426.609 412.062 426.609 407.527H419.807C418.39 406.11 417.681 401.008 417.681 392.222C417.681 381.451 418.673 363.879 420.657 339.504L421.082 333.552H390.897C374.742 333.552 362.413 333.41 353.91 333.127C345.407 332.56 340.73 331.568 339.88 330.151C339.88 329.584 339.738 328.875 339.455 328.025C339.171 327.175 338.746 325.899 338.179 324.199C333.645 323.632 330.527 319.664 328.826 312.295C327.126 304.926 326.275 290.896 326.275 270.206C326.275 264.537 326.842 260.002 327.976 256.601C329.393 253.2 332.086 247.957 336.054 240.871C337.187 238.32 338.888 235.202 341.155 231.518C360.712 193.538 387.638 149.465 421.933 99.2983L435.112 98.8731C452.118 98.3062 466.573 98.0228 478.477 98.0228H485.704C489.955 98.0228 493.357 98.3062 495.907 98.8731L495.482 106.526ZM488.68 262.128C488.397 260.994 488.255 256.318 488.255 248.098C488.255 219.472 489.247 173.982 491.231 111.627L491.656 102.699H490.806C489.389 102.416 485.421 102.274 478.902 102.274C465.297 102.274 450.559 102.558 434.687 103.125L424.058 103.55L423.633 103.975C396.141 145.355 370.632 187.445 347.107 230.242C339.171 245.547 333.786 254.759 330.952 257.877C330.669 260.994 330.527 265.246 330.527 270.631C330.527 282.535 331.094 293.022 332.227 302.091C333.361 311.161 334.353 316.971 335.203 319.522C335.487 319.806 341.439 320.089 353.059 320.373C364.68 320.656 373.325 320.798 378.993 320.798C408.186 320.798 423.917 321.081 426.184 321.648L424.909 340.779C422.358 371.39 421.082 391.513 421.082 401.15V402.85C421.082 403.134 421.224 403.275 421.507 403.275H447.016C460.054 403.275 468.982 403.134 473.8 402.85C478.618 402.567 481.594 401.717 482.728 400.299C483.578 396.331 485.421 374.366 488.255 334.402C488.255 331.851 488.255 329.867 488.255 328.45C488.538 326.75 488.68 325.758 488.68 325.474C489.53 325.191 491.373 325.049 494.207 325.049L505.686 325.474C508.803 325.474 511.779 325.049 514.614 324.199L517.165 262.553L508.237 262.128C503.135 261.561 499.309 261.278 496.758 261.278C493.923 261.278 492.081 261.419 491.231 261.703L488.68 262.128ZM437.663 262.978C436.246 263.262 432.136 263.403 425.334 263.403C421.649 263.12 415.414 262.978 406.627 262.978H389.197L381.544 262.553C384.378 257.168 389.905 247.39 398.125 233.218C406.627 218.763 414.989 204.875 423.208 191.554C431.711 178.233 436.813 171.573 438.513 171.573C438.797 171.573 438.938 171.714 438.938 171.998L437.663 262.978ZM434.262 196.231C419.523 221.739 408.328 242.713 400.675 259.152H424.058C426.609 259.152 428.31 259.294 429.16 259.577C430.01 259.577 430.719 259.577 431.286 259.577C431.853 259.577 432.136 259.577 432.136 259.577C432.419 259.294 432.845 259.152 433.411 259.152L434.262 196.231Z" fill="black"/>
<defs>
<linearGradient id="paint0_linear_139_55" x1="152.068" y1="137.562" x2="349.101" y2="320.265" gradientUnits="userSpaceOnUse">
<stop stop-color="#FF005D"/>
<stop offset="1" stop-color="#77156E"/>
</linearGradient>
</defs>
</svg>
