<svg width="35" height="36" viewBox="0 0 35 36" fill="none" xmlns="http://www.w3.org/2000/svg">
<path d="M12.5 30.8333C4.61667 33.4 4.61667 26.25 1.5 25.3333M23.5 34.5V28.0833C23.5 26.25 23.6833 25.5166 22.5833 24.4166C27.7167 23.8666 32.6667 21.85 32.6667 13.4166C32.6644 11.2257 31.8097 9.1217 30.2833 7.54997C30.9992 5.64691 30.9333 3.53795 30.1 1.6833C30.1 1.6833 28.0833 1.1333 23.6833 4.06664C19.9566 3.09605 16.0434 3.09605 12.3167 4.06664C7.91667 1.1333 5.9 1.6833 5.9 1.6833C5.06672 3.53795 5.00081 5.64691 5.71667 7.54997C4.19033 9.1217 3.33557 11.2257 3.33333 13.4166C3.33333 21.85 8.28333 23.8666 13.4167 24.4166C12.3167 25.5166 12.3167 26.6166 12.5 28.0833V34.5" stroke="#1E1E1E" stroke-width="2.75" stroke-linecap="round" stroke-linejoin="round"/>
</svg>
